<svg version="1.1" xmlns="http://www.w3.org/2000/svg" x="0px" y="0px" viewBox="0 0 300 300" style="fill: darkgoldenrod;">
<path d="M175.9,12.2c7.3,0.1,14.6,0.4,21.9,0.8c7.2,0.5,14.3,0,21.5-0.2
	c-0.1,2.4,0,4.8-0.2,7.2c-0.2,2.5-0.4,4.9,0.2,7.4c1.9-0.5,3.6-1.1,5.5-1.4c3-1.1,5.8-2.4,8.7-3.4c3.3-0.4,6.2-2.7,9.6-2.5
	c1.1,2,3.5,2.9,4.4,5.1c1.3,1.6,3.1,2.8,3.9,4.8c2.8,2.5,4.6,5.9,7.4,8.4c0.8,1.8,2.1,3.1,3.5,4.3c0.9,1.3,1.5,2.8,2.8,3.8
	c1.1,0.8,1.6,2.1,2.4,3.3c1.4,1.2,2.6,2.6,3.5,4.3c1.1,1.2,1.9,2.7,2.9,4.1c1.1,1.5,0.9,3.4,1.1,5.2c-0.4,3.2,0,6.4-0.4,9.6
	c-1.1,12.8-2.5,25.6-3.7,38.4c-0.1,3.2,0.1,6.3-0.1,9.4c-1.2,1.4-3,2.4-4,4.1c-0.3,0.5-0.7,0.7-1.1,1c-2,1-3.4,2.8-5.5,3.6
	c-3.5,1.3-6.7,3.8-10.5,4.3c-4.1,1.4-8.5,2.9-12.9,3.3c-1,0-2.3,0.3-2.8-0.8c-0.9-1.8-2.4-3.1-2.8-5c-1.2-1.9-2.8-3.7-3.7-5.8
	c-1.1-2.6-3.4-4.6-4.4-7.3c-1-1.4-1.9-2.7-2.7-4.1c1-0.1,2,0.3,2.8-0.4c0.7,0,1.4,0,2.1-0.1c1,0.7,1.9,1.5,2.5,2.6
	c0.6,1.3,2,1.9,2.9,3.1c0.8,0.9,1.1,2,2.2,2.7c1.3,1,2.2,2.3,3.3,3.6c1.9,0.7,2.9-1.7,3.7-3c1.4-1.5,3-3.2,3.5-5.2
	c0.3-21.3-0.1-42.5-2.4-63.6c-0.4-4.9-1.5-9.5-1.6-14.4c-0.3-1.7-0.7-3.4-0.8-5c-0.8-0.7-1.9-1.6-3-1.2c-2.3,0.4-4.6,1.3-7,1.2
	c-3.1,0.7-6.2,1.3-9.1,2.5c-0.4,2.6-0.3,5.3-0.3,7.9c-0.1,9.2,0.2,18.4,0.1,27.5c-0.1,13.4,0.2,26.7,0.1,40.2
	c0.9,19.4,2.4,38.8,3.7,58.1c0.3,2.4,0.3,4.7,0.2,7.1c0.1,0.8-0.7,1.3-1.1,1.9c-1.2-1.9-2.4-3.8-3.1-5.8c-1-2.6-2.8-4.8-3.7-7.4
	c-1-2.6-2.6-4.9-3.8-7.4c-0.4,24.9,0.1,49.8-0.3,74.6c-1.8-0.8-2.6-2.6-3.5-4.1c-0.7-3.3-3.4-5.6-4.3-8.8c-0.6-1.9-2-3.4-2.8-5.3
	c-0.3,5.1-0.9,10.2-1,15.3c0.2,4.7-0.4,9.4-0.8,13.9c-0.9,11.1-1.8,22.2-2.9,33.3c-0.5,3.4,0.3,7-1.1,10.2
	c-1.1-4.9-1.8-9.8-2.7-14.7c-0.4-1.9-0.2-3.7-0.5-5.6c-1.2-6.4-2.3-12.9-3.5-19.3c-0.3-1.6-0.1-3.2-0.4-4.7
	c-1.2-6.6-2.5-13.2-3.6-20c0.1-3.4-0.8-6.6-1.4-9.9c-0.8-4.5-1.7-9-2.5-13.5c-0.2-1.6-0.1-3.2-0.4-4.8c-1.1-5.7-2.1-11.4-3.2-17.1
	c-0.6-2.5-0.3-5-0.9-7.5c0.7,1.3,1.8,2.5,3,3.3c1.3,0.7,1.6,2.4,2.8,3.3c1.2,0.8,2.3,1.9,3,3.2c0.6,0,0.9-0.3,0.8-0.9
	c-0.4-4.4-1.4-8.7-1.3-13.2c-1.1-8.1-2.4-16.2-3.7-24.2c-0.3-1.5,0-3.1-0.4-4.6c-1.2-7.2-2.6-14.4-4-21.5c-4.4-0.9-9.1,0.4-13.2,1.9
	c-1.4,0.4-2.6,1.2-4,1.4c-0.8,0.1-1.5,0.4-2.1,0.9c-0.5,1.2-0.2,2.6-0.3,3.9c-0.1,14.3,0.2,28.5,0.1,42.7
	c0.2,14.7,0.1,29.4,0.1,44.1c-0.3,6.3,0.5,12.7,3.4,18.4c0.9,2.2,2.2,4.5,4.3,5.7c1.2,1.1,2.7,1.7,4.1,2.6c0.2,0.6,0.2,1.3,0,2
	c-0.6,0.6-1.7,0.8-2.6,0.6c-4.1-0.7-8.1-1.6-12.3-1.5c-13.2-1.6-26.6-2.2-39.7-0.5c-0.9-0.1-0.7-1.1-1-1.6c-0.2-0.8-0.8-1.4-1.2-2.1
	c1.8-1.4,3.6-2.6,5.5-3.7c1.2-1.4,2.6-2.7,3.9-4.1c0.5-1.6,1.4-3,2-4.4c1.3-3.8,2.3-7.8,2.1-11.8c1.8-17.6,1.6-35.2,1-52.9
	c-0.2-6.2-0.6-12.3-1.1-18.4c-1.7,1.2-3.4,2.6-5,3.8c-1.9,0.4-3.3,1.8-4.9,2.5c-1.7,0.7-3.2,1.9-5,1.9c-3.4,1.4-6.8,2.6-10.3,3.6
	c-1.7,0.1-3.4,0.4-4.9,0.9c0.3,20.6,0.3,41.1,0.6,61.6c-0.2,2,1.1,3.7,2,5.5c2.4,1.2,4,3.8,6.7,4.3c0.4,0.3,0.7,0.5,1,0.8
	c0,0.7-0.1,1.4-0.1,2.1c-6.2-2.1-12.7-2.6-19.2-3c-7.4,0.1-14.8-0.4-22.2-0.5c-5.9-0.2-11.8-0.3-17.7-0.3c0-1.1-0.1-2-0.2-3
	c2.1-0.4,4-1.6,5.7-2.7c2.5-1.5,4.9-3.4,6.4-5.8c1.1-2,2.1-4.1,2.3-6.4c1-7.9,0.8-15.7,1-23.6c0-8.7-0.1-17.2-0.4-25.9
	c-2.5-1.2-4.9-2.4-7.2-3.8c-1.3-0.1-2.5-0.7-3.5-1.4c-1.4-0.9-3-1.5-4.4-2.4c-1-0.4-2.1-0.5-3-1.2c-1.4-1.1-3.1-1.8-4.6-2.8
	c-2.1-1.1-3.4-3.3-5-4.9c-0.9-1.1-1.6-2.2-2.5-3.2c-0.9-2.5-2.9-4.2-3.8-6.6c-0.7-2.1-1.9-4-2.6-6.2c3.1-1.6,6.4-3.2,10.1-3.4
	c4.1-1,8.2-1.8,12.4-2.4c1.2-0.1,0.9,1.4,0.4,2.1c-1.6,0.9-3.2,1.6-4.7,2.6c-1.1,0.8-2.3,1.6-3.7,1.8c-2.1,1.5-4.4,2.7-6.4,4.4
	c0.9,0.8,1.8,1.7,2.6,2.6c0.9,1.1,2.4,1.2,3.4,2.2c2.3,2.2,5.5,3.2,8,5c1.1,0.8,2.4,1.5,3.7,1.9c3.4,1.3,6.5,4.6,10.5,3.9
	c0.1-7.9-0.2-15.8-0.4-23.7c-0.5-17.2-1.2-34.3-1.9-51.5c-0.3-4.7-0.1-9.4-0.2-14c0-1.3-0.7-2.5-1.3-3.5c-1.9-3.4-5.4-5.6-8.8-7.1
	c0.3-1.1,1.1-1.9,2.3-1.9c7.2,0.5,14.6,0.4,21.9,0.2c9-0.2,18-0.6,27-0.9c-0.1,1-0.1,1.9-0.3,2.8c-0.4,0.2-0.8,0.4-1.1,0.5
	c-1.1,1.5-2.6,2.8-3.4,4.5c-1.2,2.4-0.5,5.1-0.8,7.7c-0.2,10.9,0.2,21.8,0.1,32.8c-0.1,13.4,0.6,26.8,1.1,40.2
	c0.2,3.1,0.3,6.2,0.5,9.3c2.1-0.5,4.1-1.4,6-2.4c1.1-1,2.8-0.8,4-1.8c1.3-1.1,3-1.7,4.3-2.8c2.9-0.7,4.6-3.5,7.5-4.3
	c1.6-1.4,3.4-2.5,5-3.9c1.2-0.6,2.4-1.5,3.4-2.4c0-10.7,0-21.3,0-32c-0.4-16.3-1.3-32.7-2.6-48.9c-0.2-1.5-0.9-2.8-1.4-4.1
	c-1.2-0.7-2.4-1.5-3.7-2.1c-0.4-0.9-1.9-2.3-0.6-3.1c4.9,1.1,9.9,0.6,14.8,0.9c6.7,0.4,13.4-0.2,20.1-0.1c3.9-0.2,7.9-0.8,11.7-1
	c0.2,0.2,0.6,0.4,0.8,0.5c-1.1,1.4-2.6,2.6-3.4,4.2c-1.3,3.2-3.2,6.1-4.2,9.4c-1.2,8.4-1.1,16.9-1.1,25.2
	c-0.1,8.3,0.1,16.6,0.1,24.9c0.2,5.4,0,10.8,0.4,16.1c4.6-1.1,9.3-2.4,14-2.6c3.5-0.8,7.5-0.6,10.5,1.7c1.1,0.2,2,0.5,2.9,1.1
	c1.6,1.2,3.4,2.2,5.1,3.1c-0.3-3.3-0.8-6.5-0.6-9.9c-1-9.2-2.4-18.4-3.7-27.5c-0.3-1.7-0.1-3.4-0.3-5c-1.2-8.4-2.5-16.9-3.7-25.2
	c-0.3-1.7,0-3.4-0.3-5c-1.1-7.7-2.2-15.4-3.4-23.1C175.9,16.3,175.8,14.2,175.9,12.2L175.9,12.2z"/>
</svg>
